<svg xmlns="http://www.w3.org/2000/svg" viewBox="0 0 600 420" fill="none">
  <rect width="600" height="420" fill="#ecfdf5"/>
  <circle cx="520" cy="84" r="46" fill="#fcd34d" opacity="0.9"/>
  <ellipse cx="300" cy="352" rx="260" ry="42" fill="#d1fae5"/>
  <ellipse cx="300" cy="352" rx="170" ry="26" fill="#a7f3d0" opacity="0.7"/>
  <rect x="116" y="262" width="56" height="14" rx="7" fill="#b45309"/>
  <circle cx="126" cy="258" r="18" fill="#047857"/>
  <circle cx="162" cy="258" r="18" fill="#059669"/>
  <rect x="428" y="262" width="56" height="14" rx="7" fill="#b45309"/>
  <circle cx="438" cy="258" r="18" fill="#047857"/>
  <circle cx="474" cy="258" r="18" fill="#059669"/>
  <rect x="185" y="150" width="230" height="190" rx="10" fill="#065f46"/>
  <rect x="200" y="255" width="200" height="85" fill="#064e3b" opacity="0.55"/>
  <path d="M300 150 C258 150 250 92 300 92 C350 92 342 150 300 150Z" fill="#047857"/>
  <line x1="300" y1="92" x2="300" y2="76" stroke="#f59e0b" stroke-width="5" stroke-linecap="round"/>
  <path d="M300 70 A12 12 0 1 0 306 62 A10 10 0 0 1 300 70Z" fill="#fcd34d"/>
  <rect x="142" y="120" width="18" height="220" rx="9" fill="#065f46"/>
  <rect x="440" y="120" width="18" height="220" rx="9" fill="#065f46"/>
  <path d="M151 106 A28 28 0 0 1 177 132 L151 132Z" fill="#059669"/>
  <path d="M449 106 A28 28 0 0 1 475 132 L449 132Z" fill="#059669"/>
  <rect x="282" y="282" width="36" height="58" rx="18" fill="#f59e0b"/>
  <rect x="282" y="282" width="36" height="58" rx="18" fill="#d97706" opacity="0.25"/>
  <rect x="212" y="196" width="30" height="30" rx="4" fill="#fcd34d"/>
  <rect x="248" y="196" width="30" height="30" rx="4" fill="#fef3c7"/>
  <rect x="322" y="196" width="30" height="30" rx="4" fill="#fcd34d"/>
  <rect x="358" y="196" width="30" height="30" rx="4" fill="#fef3c7"/>
  <rect x="212" y="168" width="176" height="22" rx="6" fill="#f59e0b" opacity="0.35"/>
  <rect x="258" y="328" width="84" height="12" rx="6" fill="#a7f3d0"/>
</svg>