<svg xmlns="http://www.w3.org/2000/svg" viewBox="0 0 600 420" fill="none">
  <rect width="600" height="420" fill="#ecfdf5"/>
  <rect x="0" y="300" width="600" height="120" fill="#d1fae5"/>
  <rect x="0" y="300" width="600" height="6" fill="#a7f3d0"/>
  <rect x="40" y="70" width="150" height="190" rx="10" fill="#a7f3d0"/>
  <line x1="40" y1="165" x2="190" y2="165" stroke="#ffffff" stroke-width="8"/>
  <line x1="115" y1="70" x2="115" y2="260" stroke="#ffffff" stroke-width="8"/>
  <rect x="160" y="24" width="36" height="36" rx="10" fill="#047857"/>
  <circle cx="178" cy="42" r="8" fill="#fcd34d"/>
  <circle cx="178" cy="42" r="3" fill="#b45309"/>
  <rect x="356" y="60" width="190" height="118" rx="10" fill="#047857"/>
  <rect x="356" y="60" width="190" height="118" rx="10" fill="#065f46" opacity="0.15"/>
  <rect x="376" y="80" width="150" height="8" rx="4" fill="#a7f3d0"/>
  <rect x="376" y="100" width="118" height="8" rx="4" fill="#fcd34d"/>
  <rect x="376" y="120" width="96" height="8" rx="4" fill="#a7f3d0"/>
  <rect x="376" y="140" width="132" height="8" rx="4" fill="#fcd34d"/>
  <rect x="376" y="160" width="56" height="8" rx="4" fill="#a7f3d0"/>
  <rect x="96" y="322" width="150" height="18" rx="9" fill="#b45309"/>
  <rect x="108" y="286" width="126" height="42" rx="8" fill="#065f46"/>
  <rect x="126" y="258" width="92" height="34" rx="8" fill="#047857"/>
  <rect x="126" y="246" width="92" height="14" rx="7" fill="#065f46"/>
  <rect x="336" y="332" width="150" height="18" rx="9" fill="#b45309"/>
  <rect x="348" y="296" width="126" height="42" rx="8" fill="#065f46"/>
  <rect x="366" y="268" width="92" height="34" rx="8" fill="#047857"/>
  <rect x="366" y="256" width="92" height="14" rx="7" fill="#065f46"/>
  <rect x="424" y="238" width="30" height="30" rx="6" fill="#fcd34d"/>
  <rect x="132" y="228" width="30" height="30" rx="6" fill="#fcd34d"/>
</svg>