<svg xmlns="http://www.w3.org/2000/svg" viewBox="0 0 600 500" fill="none">
  <defs>
    <radialGradient id="glow" cx="50%" cy="40%" r="75%">
      <stop offset="0%" stop-color="#10b981" stop-opacity="0.35"/>
      <stop offset="100%" stop-color="#064e3b" stop-opacity="0"/>
    </radialGradient>
  </defs>
  <rect width="600" height="500" fill="#064e3b"/>
  <rect width="600" height="500" fill="url(#glow)"/>
  <circle cx="470" cy="120" r="52" fill="#fcd34d" opacity="0.95"/>
  <path d="M452 62 A26 26 0 1 0 492 104 A22 22 0 0 1 452 62Z" fill="#f59e0b"/>
  <circle cx="118" cy="118" r="4" fill="#fcd34d" opacity="0.9"/>
  <circle cx="168" cy="196" r="3" fill="#a7f3d0" opacity="0.9"/>
  <circle cx="522" cy="238" r="4" fill="#fcd34d" opacity="0.8"/>
  <circle cx="88" cy="300" r="3" fill="#a7f3d0" opacity="0.8"/>
  <circle cx="540" cy="360" r="3" fill="#fcd34d" opacity="0.7"/>
  <circle cx="150" cy="410" r="4" fill="#a7f3d0" opacity="0.7"/>
  <path d="M300 470 C200 468 150 420 118 360 C150 372 170 372 170 372 C180 392 220 420 270 428 Z" fill="#047857" opacity="0.5"/>
  <ellipse cx="300" cy="430" rx="250" ry="34" fill="#065f46"/>
  <rect x="170" y="240" width="260" height="150" rx="12" fill="#065f46"/>
  <path d="M174 240 L300 168 L426 240Z" fill="#047857"/>
  <rect x="236" y="250" width="128" height="140" rx="8" fill="#064e3b"/>
  <path d="M300 168 L300 126" stroke="#f59e0b" stroke-width="6" stroke-linecap="round"/>
  <path d="M300 108 A14 14 0 1 0 308 98 A11 11 0 0 1 300 108Z" fill="#fcd34d"/>
  <rect x="120" y="252" width="20" height="138" rx="10" fill="#059669"/>
  <rect x="460" y="252" width="20" height="138" rx="10" fill="#059669"/>
  <path d="M130 236 A26 26 0 0 1 156 252 L130 252Z" fill="#10b981"/>
  <path d="M470 236 A26 26 0 0 1 496 252 L470 252Z" fill="#10b981"/>
  <rect x="150" y="286" width="76" height="20" rx="6" fill="#f59e0b" opacity="0.9"/>
  <rect x="240" y="286" width="70" height="20" rx="6" fill="#fef3c7" opacity="0.85"/>
  <rect x="324" y="286" width="70" height="20" rx="6" fill="#f59e0b" opacity="0.9"/>
  <rect x="408" y="286" width="52" height="20" rx="6" fill="#fef3c7" opacity="0.85"/>
  <path d="M224 330 L232 314 L240 330 L224 330Z" fill="#fcd34d"/>
  <path d="M286 310 L294 294 L302 310 L286 310Z" fill="#fcd34d"/>
  <path d="M336 312 L344 296 L352 312 L336 312Z" fill="#fcd34d"/>
  <path d="M386 310 L394 294 L402 310 L386 310Z" fill="#fcd34d"/>
  <rect x="258" y="352" width="84" height="34" rx="17" fill="#fcd34d"/>
  <path d="M284 322 L316 322 C312 336 288 336 284 322Z" fill="#f59e0b"/>
  <path d="M252 360 L348 360 L338 376 L262 376Z" fill="#a7f3d0" opacity="0.35"/>
</svg>